<?xml version="1.0" encoding="utf-8"?>
<!-- Generator: Adobe Illustrator 19.1.0, SVG Export Plug-In . SVG Version: 6.00 Build 0)  -->
<svg version="1.1" id="Layer_1" xmlns="http://www.w3.org/2000/svg" xmlns:xlink="http://www.w3.org/1999/xlink" x="0px" y="0px"
	 viewBox="0 0 219.4 157.4" enable-background="new 0 0 219.4 157.4" xml:space="preserve">
<metadata><?xpacket begin="﻿" id="W5M0MpCehiHzreSzNTczkc9d"?>
<x:xmpmeta xmlns:x="adobe:ns:meta/" x:xmptk="Adobe XMP Core 5.6-c067 79.157747, 2015/03/30-23:40:42        ">
   <rdf:RDF xmlns:rdf="http://www.w3.org/1999/02/22-rdf-syntax-ns#">
      <rdf:Description rdf:about=""/>
   </rdf:RDF>
</x:xmpmeta>
                                                                                                    
                                                                                                    
                                                                                                    
                                                                                                    
                                                                                                    
                                                                                                    
                                                                                                    
                                                                                                    
                                                                                                    
                                                                                                    
                                                                                                    
                                                                                                    
                                                                                                    
                                                                                                    
                                                                                                    
                                                                                                    
                                                                                                    
                                                                                                    
                                                                                                    
                                                                                                    
                           
<?xpacket end="w"?></metadata>
<g>
	<g>
		<path d="M117,27.8c0.4,2.5-0.5,6.5-3.5,5.8c0.1-3.3,1.9-7,2.1-7.3c-0.2,0.1-2.2,1.7-2.9,6.4c0,0.2,0.1,0.4,0.1,0.6
			c0.3,1.2,1.1,5.9,1.1,7.9c0,1.9-2.3,0-2.3,0c0-1-0.1-3.4-0.2-5.1c-1.8-2.7-3.5-3-3.6-3c0.1,0,2.2,1.6,3.2,3.7
			c-1.6,1.4-3.2-0.7-3.6-2.3c-0.2-0.9-0.6-1.9-1.3-2.5c1.5,0.2,4.1,0.6,5.1,2.2c-0.4-2.4-0.9-4.8-1.6-7.2c-3.2,1.1-5.4-3.4-5.7-6.4
			c-0.2-1.9-0.5-4-1.8-5.5c3.2,1,8.9,3.4,9.8,7.4c0.3,1.2,0,2.4-0.5,3.2c-2.6-6.3-5.9-7.6-6.1-7.7c0.1,0.1,1.8,2,3.3,4.6
			c0.6,1,1.1,2.1,1.5,3.2h0c0.7,1.6,1.2,2.8,1.7,4c0.7-2.7,3.7-5,5.6-6.3C116.7,24.7,116.8,26.4,117,27.8z"/>
		<path d="M153.8,95.5c1.8-13.9,2-28.2,0-42.1l1.1-2c0.9-1.6,0.9-3.7-0.4-5.1l-0.8-0.9c-1.3-1.5-3.2-1.5-4.7-0.4l-1.7,1.1
			c-5.2-1.1-10.4-1.5-15.7-1.3c1.1-11.8,1-23.8-0.7-35.5l1.1-2c0.9-1.6,0.9-3.7-0.4-5.1l-0.8-0.9c-1.3-1.5-3.2-1.5-4.7-0.4l-1.7,1.1
			c-9-1.9-18.1-1.8-27,0l-1.8-1.2c-1.5-1-3.3-0.9-4.6,0.5l-0.9,1c-1.3,1.4-1.3,3.5-0.4,5.1l1.1,2C89.1,21,89,32.9,90.1,44.7
			C84.9,44.5,79.7,45,74.5,46l-1.8-1.2c-1.5-1-3.3-0.9-4.6,0.5l-0.9,1c-1.3,1.4-1.3,3.5-0.4,5.1l1.1,2c-2,14-1.9,28.2,0,42.1
			l-1.1,2.1c-0.9,1.6-0.9,3.7,0.4,5.1l0.9,1c1.3,1.4,3.1,1.4,4.6,0.4l1.8-1.2c8.9,2.4,18,2.2,27,0l1.9,1.2c1.5,1,3.3,0.9,4.6-0.5
			l0.9-1c1.3-1.4,1.3-3.4,0.4-5.1l-1.2-2.2c1.5-11.6,1.9-23.4,0.8-35c1.3,0,2.7,0,4,0c-1.1,11.7-0.7,23.5,0.9,35.1l-1.1,2.1
			c-0.9,1.6-0.9,3.7,0.4,5.1l0.9,1c1.3,1.4,3.1,1.4,4.6,0.4l1.8-1.2c8.9,2.4,18,2.2,27,0l1.9,1.2c1.5,1,3.3,0.9,4.6-0.5l0.9-1
			c1.3-1.4,1.3-3.4,0.4-5.1L153.8,95.5z M105.2,95.5c-0.1,0.6,0,0.9,0.3,1.4l1.3,2.4c0.2,0.4,0.3,0.9,0,1.3l-0.9,1
			c-0.3,0.4-0.8,0.2-1.2,0l-2.1-1.3c-0.5-0.3-0.8-0.5-1.4-0.4c-8.9,2.3-17.9,2.4-26.8,0c-0.4-0.1-0.7,0-1,0.3l-2.2,1.5
			c-0.3,0.2-0.8,0.4-1.1,0l-0.9-1c-0.3-0.4-0.2-0.9,0-1.3l1.4-2.5c0.2-0.3,0.3-0.7,0.3-1.1c-2-14.1-2.2-28.4,0-42.5
			c0.1-0.4-0.1-0.7-0.2-1l-1.3-2.4c-0.2-0.4-0.3-0.9,0-1.3l0.9-1c0.3-0.4,0.8-0.2,1.1,0l2.1,1.3c0.5,0.3,0.6,0.4,1.2,0.3
			c9-1.9,18.1-1.9,27.1,0c0.4,0.1,0.5,0,0.9-0.2l2.2-1.4c0.4-0.3,0.9-0.5,1.2,0l0.8,0.9c0.3,0.4,0.2,0.9,0,1.3l-1.4,2.5
			c-0.2,0.3-0.3,0.6-0.2,0.9C107.3,67.2,107.1,81.5,105.2,95.5z M113.2,57.3c-1.5,0.1-3.1,0.1-4.6,0c0-0.4-0.1-0.8-0.1-1.3
			c1.6,0.1,3.3,0.1,4.9,0C113.3,56.4,113.2,56.9,113.2,57.3z M113,46.3c-1.3,1.4-1.3,3.5-0.4,5.1l1.1,2c0,0.3-0.1,0.6-0.1,1
			c-1.8,0.2-3.5,0.3-5.3,0.3c0-0.4-0.1-0.9-0.2-1.3l1.1-2c0.9-1.6,0.9-3.7-0.4-5.1l-0.8-0.9c-1.3-1.5-3.2-1.5-4.7-0.4l-1.7,1.1
			c-2.9-0.6-5.7-1-8.6-1.2c-1.2-11.9-1-23.9,0.8-35.8c0.1-0.4-0.1-0.7-0.2-1l-1.3-2.4c-0.2-0.4-0.3-0.9,0-1.3l0.9-1
			c0.3-0.4,0.8-0.2,1.2,0l2.1,1.3C96.7,5,96.8,5.1,97.4,5c9-1.9,18.1-1.9,27.1,0c0.4,0.1,0.5,0,0.9-0.2l2.2-1.4
			c0.4-0.3,0.9-0.5,1.2,0l0.8,0.9c0.3,0.4,0.2,0.9,0,1.3l-1.4,2.5C128.1,8.3,128,8.6,128,9c1.8,11.9,1.9,24,0.7,35.9
			c-0.4,0-0.8,0-1.2,0.1c0.4-3.6,0.6-7.3,0.7-10.9l-1.6,2.3c-0.2,2.9-0.4,5.9-0.7,8.8c-1.9,0.2-3.8,0.5-5.8,0.9l-1.8-1.2
			c-1.5-1-3.3-0.9-4.6,0.5L113,46.3z M150.9,95.5c-0.1,0.6,0,0.9,0.3,1.4l1.3,2.4c0.2,0.4,0.3,0.9,0,1.3l-0.9,1
			c-0.3,0.4-0.8,0.2-1.2,0l-2-1.3c-0.5-0.3-0.8-0.5-1.4-0.4c-8.9,2.3-17.9,2.4-26.8,0c-0.4-0.1-0.7,0-1,0.3l-2.2,1.5
			c-0.3,0.2-0.8,0.4-1.1,0l-0.9-1c-0.3-0.4-0.2-0.9,0-1.3l1.3-2.5c0.2-0.3,0.3-0.7,0.3-1.1c-2-14.1-2.2-28.4,0-42.5
			c0.1-0.4,0-0.7-0.2-1l-1.3-2.4c-0.2-0.4-0.3-0.9,0-1.3l0.9-1c0.3-0.4,0.8-0.2,1.1,0l2.1,1.3c0.5,0.3,0.6,0.4,1.2,0.3
			c9-1.9,18.1-1.9,27.2,0c0.4,0.1,0.5,0,0.9-0.2l2.2-1.4c0.4-0.3,0.8-0.5,1.2,0l0.8,0.9c0.3,0.4,0.2,0.9,0,1.3l-1.4,2.5
			c-0.2,0.3-0.3,0.6-0.2,0.9C153,67.2,152.8,81.5,150.9,95.5z"/>
		<path d="M151.2,78.2c-0.2,5.7-0.7,11.4-1.4,17c-0.3,1.7-1.4,2.8-3,3.3c-8.6,2.2-17.3,2.4-25.9,0c0,0-0.8-0.3-0.8-1
			c8,2,16.1,1.7,24.1-0.6c3.9-1.1,4.1-1.8,4.6-6.1c0.4-3.5,0.7-6.9,0.9-10.4L151.2,78.2z"/>
		<path d="M139.9,73c0.4,2.5-0.5,6.5-3.5,5.8c0-2.1,0.8-4.3,1.4-5.7c0-0.1,0.1-0.2,0.1-0.3c0.1-0.3,0.3-0.6,0.4-0.8
			c0-0.1,0.1-0.2,0.1-0.2c0-0.1,0.1-0.2,0.1-0.2c-0.1,0-0.4,0.3-0.8,0.8c-0.1,0.1-0.1,0.1-0.2,0.2c-0.6,0.8-1.4,2.3-1.9,4.5
			c-0.1,0.3-0.1,0.6-0.2,0.9c0,0.2,0.1,0.4,0.1,0.6c0.3,1.2,1.1,5.9,1.1,7.9c0,1.9-2.3,0-2.3,0c0-1-0.1-3.4-0.2-5.1
			c-1.8-2.7-3.5-3-3.6-3c0.1,0,2.2,1.6,3.2,3.7c-1.6,1.4-3.2-0.7-3.6-2.3c-0.2-0.9-0.6-1.9-1.3-2.5c1.5,0.2,4.1,0.6,5.1,2.2
			c-0.4-2.4-0.9-4.8-1.6-7.2c-3.2,1.1-5.4-3.4-5.7-6.4c-0.2-1.9-0.5-4-1.8-5.5c3.2,1,8.9,3.3,9.8,7.4c0.3,1.2,0,2.4-0.5,3.2
			c-2.6-6.3-5.9-7.6-6.1-7.7c0.1,0.1,1.9,2,3.4,4.6c0.6,1,1.1,2.1,1.5,3.2l0,0c0.7,1.6,1.2,2.8,1.7,4c0.7-2.7,3.7-5,5.6-6.3
			C139.5,69.9,139.7,71.6,139.9,73z"/>
		<path d="M105.5,78.2c-0.2,5.7-0.7,11.4-1.4,17c-0.3,1.7-1.4,2.8-3,3.3c-8.6,2.2-17.3,2.4-25.9,0c0,0-0.8-0.3-0.8-1
			c8,2,16.1,1.7,24.1-0.6c3.9-1.1,4.1-1.8,4.6-6.1c0.4-3.5,0.7-6.9,0.9-10.4L105.5,78.2z"/>
		<path d="M94.1,73c0.4,2.5-0.5,6.5-3.5,5.8c0-0.4,0-0.8,0.1-1.2c0-0.2,0.1-0.4,0.1-0.6c0,0,0,0,0-0.1c0.1-0.4,0.2-0.8,0.3-1.2
			c0-0.2,0.1-0.4,0.2-0.6c0.2-0.5,0.3-1,0.5-1.5c0.1-0.3,0.2-0.6,0.3-0.8c0.1-0.2,0.1-0.3,0.2-0.5c0.2-0.5,0.4-0.8,0.4-0.9
			c0,0-0.1,0.1-0.2,0.2c0,0-0.1,0.1-0.1,0.1c0,0-0.1,0.1-0.1,0.1c-0.2,0.2-0.3,0.4-0.5,0.7c-0.1,0.1-0.2,0.2-0.2,0.3
			c-0.1,0.1-0.1,0.2-0.2,0.3c-0.2,0.4-0.5,0.9-0.7,1.4c-0.1,0.3-0.2,0.6-0.4,1c-0.1,0.2-0.1,0.4-0.2,0.7c-0.1,0.5-0.2,1-0.3,1.6
			c0,0.2,0.1,0.4,0.1,0.6c0.3,1.2,1.1,5.9,1.1,7.9c0,1.9-2.3,0-2.3,0c0-1-0.1-3.4-0.2-5.1c-1.8-2.7-3.5-3-3.6-3
			c0.1,0,2.2,1.6,3.2,3.7c-1.6,1.4-3.2-0.7-3.6-2.3c-0.2-0.9-0.6-1.9-1.3-2.5c1.5,0.2,4.1,0.6,5.1,2.2c-0.4-2.4-0.9-4.8-1.6-7.2
			c-3.2,1.1-5.4-3.4-5.7-6.4c-0.2-1.9-0.5-4-1.8-5.5c3.2,1,8.9,3.3,9.8,7.4c0.3,1.2,0,2.4-0.5,3.2c-2.6-6.3-5.9-7.6-6.1-7.7
			c0.1,0.1,1.8,2,3.3,4.6c0.6,1,1.1,2.1,1.5,3.2l0,0c0.7,1.6,1.2,2.8,1.7,4c0.7-2.7,3.7-5,5.6-6.3C93.8,69.9,93.9,71.6,94.1,73z"/>
	</g>
	<g>
		<path d="M11,136.6c-0.2-2.8-1.4-5-4.2-5c-2.3,0-3.8,1.5-3.8,3.6c0,6.2,11.1,6.3,11.1,15.1c0,4.4-2.5,7-7.1,7c-4.3,0-6.9-3.2-7-7.8
			h2.7c0.1,3.2,1.6,5.3,4.5,5.3c2.5,0,4.1-1.6,4.1-4.5c0-6.3-11.1-7-11.1-14.8c0-3.9,2.7-6.4,6.6-6.4s6.6,2.7,6.8,7.5H11z"/>
		<path d="M30.6,129.5v2.5H21v9.4h7.1v2.5H21v10.6h10.1v2.5h-13v-27.5H30.6z"/>
		<path d="M47.6,129.5v2.5H38v9.4H45v2.5H38v10.6H48v2.5H35v-27.5H47.6z"/>
		<path d="M51.9,129.5H57c5.8,0,9.3,3.2,9.3,13.8c0,10.6-3.5,13.8-9.3,13.8h-5.1V129.5z M54.9,154.5h1.6c4.3,0,6.9-1.8,6.9-11.2
			c0-9.4-2.5-11.2-6.9-11.2h-1.6V154.5z"/>
		<path d="M79.2,157v-27.5h12.7v4.1h-7.9v7.1H90v4.1h-6.1v8.1h8.5v4.1H79.2z"/>
		<path d="M99.8,142.6l-5-13.1h4.7l2.9,8.7h0.1l2.6-8.7h4.7l-4.8,13.1l5.3,14.4h-4.6l-3.2-10h-0.1L99,157h-4.7L99.8,142.6z"/>
		<path d="M122.6,138.7v-2.1c0-2.3-1.1-3.3-2.3-3.3c-1.9,0-2.5,1-2.5,3v14c0,2.1,0.6,3,2.5,3c1.7,0,2.3-1,2.3-2.8v-3.3h4.7v3.2
			c0,3.9-2.3,7.1-7,7.1c-5,0-7.2-3.2-7.2-7.1v-14.2c0-3.9,2.3-7.1,7.2-7.1c4.7,0,7,3.4,7,7.5v2H122.6z"/>
		<path d="M132.1,157v-27.5h4.7v11.2h5v-11.2h4.7V157h-4.7v-12.2h-5V157H132.1z"/>
		<path d="M153.9,157h-4.6l5.1-27.5h5.9l5.1,27.5h-4.6l-0.8-6.1h-5.2L153.9,157z M155.4,146.8h3.8l-1.9-11.8h-0.1L155.4,146.8z"/>
		<path d="M168.1,157v-27.5h4.4l5.8,15.7h0.1v-15.7h4.3V157h-4.1l-6-17.2h-0.1V157H168.1z"/>
		<path d="M193.6,143.1h7.7v14h-2.3l-0.9-2.1c-1.4,1.7-2.6,2.4-4.8,2.4c-3.7,0-6.3-2.7-6.3-7.1v-14.2c0-3.9,2.3-7.1,6.9-7.1
			c4.7,0,7.1,3.4,7.1,7.5v1.8h-4.5c0-4.1-0.8-5.2-2.7-5.2c-1.1,0-2.1,0.7-2.1,3v14.1c0,1.8,0.6,2.9,2.2,2.9c1.9,0,2.6-1.1,2.6-3.8
			v-2.7h-3V143.1z"/>
		<path d="M206.2,157v-27.5h12.7v4.1h-7.9v7.1h6.1v4.1h-6.1v8.1h8.5v4.1H206.2z"/>
	</g>
</g>
</svg>
